<svg width="23" height="22" viewBox="0 0 23 22" fill="none" xmlns="http://www.w3.org/2000/svg">
<path d="M1.1665 1.25H3.87484L6.0415 16.4167H17.4165M17.4165 16.4167C16.2199 16.4167 15.2498 17.3867 15.2498 18.5833C15.2498 19.78 16.2199 20.75 17.4165 20.75C18.6132 20.75 19.5832 19.78 19.5832 18.5833C19.5832 17.3867 18.6132 16.4167 17.4165 16.4167ZM5.57721 13.1667H18.4998L21.7498 3.41667H4.18436M10.9165 18.5833C10.9165 19.78 9.94649 20.75 8.74984 20.75C7.55322 20.75 6.58317 19.78 6.58317 18.5833C6.58317 17.3867 7.55322 16.4167 8.74984 16.4167C9.94649 16.4167 10.9165 17.3867 10.9165 18.5833Z" stroke="#333333" stroke-width="1.5" stroke-linecap="round" stroke-linejoin="round"/>
</svg>
